<svg version="1.1" viewBox="0.0 0.0 350.46456692913387 387.0787401574803" fill="none" stroke="none" stroke-linecap="square" stroke-miterlimit="10" xmlns:xlink="http://www.w3.org/1999/xlink" xmlns="http://www.w3.org/2000/svg"><clipPath id="p.0"><path d="m0 0l350.46457 0l0 387.07874l-350.46457 0l0 -387.07874z" clip-rule="nonzero"/></clipPath><g clip-path="url(#p.0)"><path fill="#000000" fill-opacity="0.0" d="m0 0l350.46457 0l0 387.07874l-350.46457 0z" fill-rule="evenodd"/><path fill="#cc0000" d="m1.891432 148.44044l-0.23562562 -119.12363l116.33012 -29.317322l0.23561859 119.12362z" fill-rule="evenodd"/><path fill="#cc0000" d="m1.891432 386.37305l-0.23562562 -119.12363l116.33012 -29.317322l0.23561859 119.12363z" fill-rule="evenodd"/><path fill="#cc0000" d="m233.34874 267.54114l-115.55905 -28.88977l0 -119.960625l115.55905 28.889763z" fill-rule="evenodd"/><path fill="#cc0000" d="m232.39839 148.44044l-0.23562622 -119.12363l116.330124 -29.317322l0.23562622 119.12362z" fill-rule="evenodd"/><path fill="#cc0000" d="m232.39839 386.37305l-0.23562622 -119.12363l116.330124 -29.317322l0.23562622 119.12363z" fill-rule="evenodd"/><path fill="#000000" fill-opacity="0.0" d="m-8.623271 131.73058l94.29921 -25.259842l41.826775 156.0l-94.29921 25.259827z" fill-rule="evenodd"/><path fill="#cc0000" d="m69.96162 175.0417l15.145889 56.48915l-24.390118 6.5333557l-15.145889 -56.48915l-24.93346 6.678894l-5.203744 -19.408234l74.13629 -19.858826l5.203743 19.408249l-24.812714 6.6465607z" fill-rule="nonzero"/><path fill="#000000" fill-opacity="0.0" d="m216.85701 126.199135l102.23622 -27.370071l41.795258 156.0l-102.236206 27.370071z" fill-rule="evenodd"/><path fill="#cc0000" d="m317.73764 224.09499l-6.066742 -9.844101l-26.594696 7.1197815l-0.33288574 11.557373l-24.934448 6.675293l7.361206 -83.31598l28.360657 -7.5925446l48.016754 68.49051l-25.809845 6.909668zm-32.143127 -21.0764l16.451874 -4.4044037l-15.196381 -24.901566l-0.43771362 0.1171875l-0.81777954 29.188782z" fill-rule="nonzero"/><path fill="#000000" fill-opacity="0.0" d="m118.56667 111.54174l114.771645 0l0 161.51181l-114.771645 0z" fill-rule="evenodd"/><path fill="#ffffff" d="m212.59792 177.7115q0 7.203125 -3.890625 13.03125q-3.875 5.8125 -11.296875 8.5625l17.484375 32.890625l-28.328125 0l-13.9375 -28.671875l-9.375 0l0 28.671875l-25.234375 0l0 -78.578125l48.078125 0q8.453125 0 14.453125 3.25q6.0 3.25 9.015625 8.796875q3.03125 5.53125 3.03125 12.046875zm-25.6875 1.03125q0 -3.078125 -2.0625 -5.140625q-2.0625 -2.0625 -5.03125 -2.0625l-16.5625 0l0 14.515625l16.5625 0q2.96875 0 5.03125 -2.109375q2.0625 -2.125 2.0625 -5.203125z" fill-rule="nonzero"/><path fill="#000000" fill-opacity="0.0" d="m117.746315 0.71993095l115.21259 29.480316" fill-rule="evenodd"/><path stroke="#cc0000" stroke-width="1.1889763779527558" stroke-linejoin="round" stroke-linecap="butt" d="m117.746315 0.71993095l115.21259 29.480316" fill-rule="evenodd"/><path fill="#000000" fill-opacity="0.0" d="m117.43853 356.1973l115.21261 29.480316" fill-rule="evenodd"/><path stroke="#cc0000" stroke-width="1.1889763779527558" stroke-linejoin="round" stroke-linecap="butt" d="m117.43853 356.1973l115.21261 29.480316" fill-rule="evenodd"/><path fill="#000000" fill-opacity="0.0" d="m2.5921202 148.36081l-0.31496048 118.99213" fill-rule="evenodd"/><path stroke="#cc0000" stroke-width="1.1889763779527558" stroke-linejoin="round" stroke-linecap="butt" d="m2.5921202 148.36081l-0.31496048 118.99213" fill-rule="evenodd"/><path fill="#000000" fill-opacity="0.0" d="m348.05234 118.90568l0 119.685036" fill-rule="evenodd"/><path stroke="#cc0000" stroke-width="1.1889763779527558" stroke-linejoin="round" stroke-linecap="butt" d="m348.05234 118.90568l0 119.685036" fill-rule="evenodd"/></g></svg>